<?xml version="1.0" encoding="UTF-8" standalone="no"?>
<svg
   xmlns:dc="http://purl.org/dc/elements/1.1/"
   xmlns:cc="http://creativecommons.org/ns#"
   xmlns:rdf="http://www.w3.org/1999/02/22-rdf-syntax-ns#"
   xmlns:svg="http://www.w3.org/2000/svg"
   xmlns="http://www.w3.org/2000/svg"
   xmlns:sodipodi="http://sodipodi.sourceforge.net/DTD/sodipodi-0.dtd"
   xmlns:inkscape="http://www.inkscape.org/namespaces/inkscape"
   width="40"
   height="40"
   viewBox="0 0 10.583333 10.583334"
   version="1.1"
   id="svg8"
   inkscape:version="1.0.1 (3bc2e813f5, 2020-09-07)"
   sodipodi:docname="icons_40.svg"
   inkscape:export-filename="/home/milgra/Projects/zenmusic/res/pause.png"
   inkscape:export-xdpi="96"
   inkscape:export-ydpi="96">
  <defs
     id="defs2" />
  <sodipodi:namedview
     id="base"
     pagecolor="#ffffff"
     bordercolor="#666666"
     borderopacity="1.0"
     inkscape:pageopacity="0.0"
     inkscape:pageshadow="2"
     inkscape:zoom="15.734375"
     inkscape:cx="14.891551"
     inkscape:cy="14.255638"
     inkscape:document-units="mm"
     inkscape:current-layer="layer2"
     inkscape:document-rotation="0"
     showgrid="true"
     units="px"
     inkscape:window-width="1914"
     inkscape:window-height="1044"
     inkscape:window-x="2"
     inkscape:window-y="32"
     inkscape:window-maximized="0"
     showguides="false">
    <inkscape:grid
       type="xygrid"
       id="grid46" />
  </sodipodi:namedview>
  <metadata
     id="metadata5">
    <rdf:RDF>
      <cc:Work
         rdf:about="">
        <dc:format>image/svg+xml</dc:format>
        <dc:type
           rdf:resource="http://purl.org/dc/dcmitype/StillImage" />
        <dc:title />
      </cc:Work>
    </rdf:RDF>
  </metadata>
  <g
     inkscape:label="Play"
     inkscape:groupmode="layer"
     id="layer1"
     style="display:none">
    <path
       id="path1247"
       style="fill:#000000;fill-opacity:1;stroke-width:0.218042"
       inkscape:transform-center-x="-0.77388414"
       inkscape:transform-center-y="0.0013624308"
       d="M 3.7843342,2.4445144 A 0.68416542,0.68416542 0 0 0 3.1001688,3.1286798 0.68416542,0.68416542 0 0 0 3.175,3.4395833 C 3.1493243,3.4047027 3.1218348,3.3709619 3.1028414,3.3309001 l 0.00267,3.8225963 c 0.013412,-0.03525 0.035812,-0.064332 0.054341,-0.096211 A 0.68416542,0.68416542 0 0 0 3.1224354,7.2791047 0.68416542,0.68416542 0 0 0 3.806601,7.9632701 0.68416542,0.68416542 0 0 0 4.353577,7.6888915 C 4.337227,7.7230225 4.32568,7.7592095 4.30369,7.7904477 L 6.9236559,5.8403982 c -0.090114,0.042035 -0.1883065,0.063924 -0.2877417,0.064141 -0.3001566,0 -0.5527847,-0.1943381 -0.6449681,-0.4632369 a 0.68416542,0.68416542 0 0 0 0.641405,0.44631 A 0.68416542,0.68416542 0 0 0 7.3165165,5.203447 0.68416542,0.68416542 0 0 0 6.8550611,4.5566968 L 4.282314,2.648517 c 0.00536,0.00773 0.00745,0.017028 0.012467,0.024943 A 0.68416542,0.68416542 0 0 0 3.7843342,2.4445144 Z" />
  </g>
  <g
     inkscape:groupmode="layer"
     id="layer2"
     inkscape:label="Pause">
    <rect
       style="fill:#000000;stroke-width:0.264583"
       id="rect160"
       width="1.3229166"
       height="5.2916665"
       x="6.0854168"
       y="2.6458333"
       rx="0.5"
       ry="0.5" />
    <rect
       style="fill:#000000;stroke-width:0.264583"
       id="rect160-1"
       width="1.3229166"
       height="5.2916665"
       x="3.175"
       y="2.6458333"
       rx="0.5"
       ry="0.5" />
  </g>
  <g
     inkscape:groupmode="layer"
     id="layer5"
     inkscape:label="Mute"
     style="display:none;opacity:0.999904">
    <circle
       id="path174"
       style="fill:#000000;stroke:#000000;stroke-width:0.264583"
       cx="8.9193287"
       cy="8.2624712"
       r="0.0021789724" />
    <circle
       id="path176"
       style="fill:#000000;stroke:#000000;stroke-width:0.264583"
       cx="8.4375868"
       cy="5.9068255"
       r="0.0021789724" />
    <path
       id="path1247-7"
       style="display:inline;fill:#000000;fill-opacity:1;stroke-width:0.218042"
       inkscape:transform-center-x="0.77388414"
       inkscape:transform-center-y="0.0013624308"
       d="M 6.7838509,2.5309791 A 0.68416543,0.68416543 0 0 1 7.4680163,3.2151445 0.68416543,0.68416543 0 0 1 7.3931853,3.526048 C 7.4188613,3.491167 7.4463503,3.457427 7.4653443,3.4173648 L 7.4626743,7.239961 C 7.4492623,7.204711 7.4268623,7.175629 7.4083333,7.14375 A 0.68416543,0.68416543 0 0 1 7.4457497,7.3655693 0.68416543,0.68416543 0 0 1 6.7615841,8.0497347 0.68416543,0.68416543 0 0 1 6.2146081,7.7753563 c 0.01635,0.034131 0.027897,0.070318 0.049887,0.101556 L 3.644529,5.9268631 c 0.09011,0.042035 0.188307,0.063924 0.287742,0.064141 0.300157,0 0.552785,-0.1943381 0.6449679,-0.4632368 A 0.68416543,0.68416543 0 0 1 3.935834,5.9740772 0.68416543,0.68416543 0 0 1 3.251668,5.2899118 0.68416543,0.68416543 0 0 1 3.713124,4.6431615 L 6.2858711,2.7349817 c -0.00536,0.00773 -0.00745,0.017028 -0.012467,0.024943 A 0.68416543,0.68416543 0 0 1 6.7838509,2.5309791 Z" />
  </g>
  <g
     inkscape:groupmode="layer"
     id="layer7"
     inkscape:label="Next"
     style="display:none">
    <path
       id="path1247-8"
       style="display:inline;fill:#000000;fill-opacity:1;stroke-width:0.169128"
       inkscape:transform-center-x="-0.64240301"
       inkscape:transform-center-y="0.00098788224"
       d="m 3.9891195,3.3 a 0.5679273,0.49588375 0 0 0 -0.5679272,0.4958837 0.5679273,0.49588375 0 0 0 0.062118,0.225343 c -0.021315,-0.025282 -0.044132,-0.049736 -0.0599,-0.078775 l 0.00221,2.7706213 c 0.01113,-0.025548 0.029728,-0.046628 0.045109,-0.069732 A 0.5679273,0.49588375 0 0 0 3.4396729,6.8041162 0.5679273,0.49588375 0 0 0 4.0076002,7.3 0.5679273,0.49588375 0 0 0 4.4616464,7.1011303 c -0.013572,0.024739 -0.023159,0.050968 -0.041411,0.073609 L 6.5950777,5.76134 C 6.5202727,5.791807 6.4387639,5.807673 6.3562226,5.80783 6.1070618,5.80783 5.8973548,5.6669735 5.8208333,5.4720755 A 0.5679273,0.49588375 0 0 0 6.3532648,5.7955607 0.5679273,0.49588375 0 0 0 6.9211923,5.299677 0.5679273,0.49588375 0 0 0 6.5381369,4.8309118 L 4.4024937,3.4478612 c 0.00445,0.0056 0.00619,0.012342 0.010349,0.018078 A 0.5679273,0.49588375 0 0 0 3.9891195,3.3 Z" />
  </g>
  <g
     inkscape:groupmode="layer"
     id="layer3"
     inkscape:label="Shuffle"
     style="display:none">
    <circle
       style="fill:#000000;stroke-width:0.148638"
       id="path49"
       cx="3.801542"
       cy="3.8038228"
       r="0.74319184" />
    <circle
       style="fill:#000000;stroke-width:0.148638"
       id="path49-0"
       cx="3.7968383"
       cy="6.7798295"
       r="0.74319184" />
    <circle
       style="fill:#000000;stroke-width:0.148638"
       id="path49-3"
       cx="6.7826629"
       cy="3.80896"
       r="0.74319184" />
    <circle
       style="fill:#000000;stroke-width:0.148638"
       id="path49-8"
       cx="6.760778"
       cy="6.7796612"
       r="0.74319184" />
    <circle
       style="fill:#000000;stroke-width:0.148638"
       id="path49-6"
       cx="5.2902479"
       cy="5.2967434"
       r="0.74319184" />
  </g>
  <g
     inkscape:groupmode="layer"
     id="layer8"
     inkscape:label="Prev"
     style="display:none">
    <path
       id="path1247-8-0"
       style="display:inline;fill:#000000;fill-opacity:1;stroke-width:0.169128"
       inkscape:transform-center-x="0.64240301"
       inkscape:transform-center-y="0.00098788224"
       d="m 6.3296305,3.3 a 0.5679273,0.49588375 0 0 1 0.5679272,0.4958837 0.5679273,0.49588375 0 0 1 -0.062118,0.225343 c 0.021315,-0.025282 0.044132,-0.049736 0.0599,-0.078775 l -0.00221,2.7706214 c -0.01113,-0.025548 -0.029728,-0.046628 -0.045109,-0.069732 A 0.5679273,0.49588375 0 0 1 6.8790771,6.8041163 0.5679273,0.49588375 0 0 1 6.3111498,7.2999999 0.5679273,0.49588375 0 0 1 5.8571036,7.1011304 c 0.013572,0.024739 0.023159,0.050968 0.041411,0.073609 L 3.7236724,5.76134 c 0.074805,0.030467 0.1563137,0.046333 0.238855,0.04649 0.2491607,0 0.4588678,-0.1408565 0.5353893,-0.3357545 A 0.5679273,0.49588375 0 0 1 3.9654852,5.7955607 0.5679273,0.49588375 0 0 1 3.3975576,5.299677 0.5679273,0.49588375 0 0 1 3.7806131,4.8309118 L 5.9162563,3.4478612 c -0.00445,0.0056 -0.00619,0.012342 -0.010349,0.018078 A 0.5679273,0.49588375 0 0 1 6.3296305,3.3 Z" />
  </g>
</svg>
