<?xml version="1.0" encoding="UTF-8" standalone="no"?>
<svg
   xmlns:dc="http://purl.org/dc/elements/1.1/"
   xmlns:cc="http://creativecommons.org/ns#"
   xmlns:rdf="http://www.w3.org/1999/02/22-rdf-syntax-ns#"
   xmlns:svg="http://www.w3.org/2000/svg"
   xmlns="http://www.w3.org/2000/svg"
   xmlns:sodipodi="http://sodipodi.sourceforge.net/DTD/sodipodi-0.dtd"
   xmlns:inkscape="http://www.inkscape.org/namespaces/inkscape"
   width="30"
   height="30"
   viewBox="0 0 7.9374997 7.9375005"
   version="1.1"
   id="svg8"
   inkscape:version="1.0.1 (3bc2e813f5, 2020-09-07)"
   sodipodi:docname="icons_30.svg"
   inkscape:export-filename="/home/milgra/Projects/zenmusic/res/accept.png"
   inkscape:export-xdpi="96"
   inkscape:export-ydpi="96">
  <defs
     id="defs2" />
  <sodipodi:namedview
     id="base"
     pagecolor="#ffffff"
     bordercolor="#666666"
     borderopacity="1.0"
     inkscape:pageopacity="0.0"
     inkscape:pageshadow="2"
     inkscape:zoom="15.734375"
     inkscape:cx="12.960086"
     inkscape:cy="8.4139796"
     inkscape:document-units="mm"
     inkscape:current-layer="layer10"
     inkscape:document-rotation="0"
     showgrid="true"
     units="px"
     inkscape:window-width="1912"
     inkscape:window-height="1042"
     inkscape:window-x="0"
     inkscape:window-y="0"
     inkscape:window-maximized="1"
     showguides="false"
     inkscape:snap-others="false"
     inkscape:object-nodes="false"
     inkscape:snap-nodes="false"
     inkscape:snap-global="false">
    <inkscape:grid
       type="xygrid"
       id="grid46" />
  </sodipodi:namedview>
  <metadata
     id="metadata5">
    <rdf:RDF>
      <cc:Work
         rdf:about="">
        <dc:format>image/svg+xml</dc:format>
        <dc:type
           rdf:resource="http://purl.org/dc/dcmitype/StillImage" />
        <dc:title />
      </cc:Work>
    </rdf:RDF>
  </metadata>
  <g
     inkscape:groupmode="layer"
     id="layer3"
     inkscape:label="Shuffle"
     style="display:none">
    <ellipse
       style="fill:#000000;stroke-width:0.109445"
       id="path49"
       cx="2.8745153"
       cy="2.8785605"
       rx="0.55011481"
       ry="0.5443514" />
    <ellipse
       style="fill:#000000;stroke-width:0.109445"
       id="path49-0"
       cx="2.8710337"
       cy="5.0583386"
       rx="0.55011481"
       ry="0.5443514" />
    <ellipse
       style="fill:#000000;stroke-width:0.109445"
       id="path49-3"
       cx="5.0811577"
       cy="2.8823233"
       rx="0.55011481"
       ry="0.5443514" />
    <ellipse
       style="fill:#000000;stroke-width:0.109445"
       id="path49-8"
       cx="5.0649586"
       cy="5.0582151"
       rx="0.55011481"
       ry="0.5443514" />
    <ellipse
       style="fill:#000000;stroke-width:0.109445"
       id="path49-6"
       cx="3.9764638"
       cy="3.9720514"
       rx="0.55011481"
       ry="0.5443514" />
  </g>
  <g
     inkscape:groupmode="layer"
     id="layer7"
     inkscape:label="Next"
     style="display:none">
    <path
       id="path1247-8"
       style="display:inline;fill:#000000;fill-opacity:1;stroke-width:0.107635"
       inkscape:transform-center-x="-0.41307585"
       inkscape:transform-center-y="0.00062223222"
       d="M 3.3151866,2.7398811 A 0.36518672,0.31234559 0 0 0 2.95,3.0522267 0.36518672,0.31234559 0 0 0 2.9899429,3.1941649 C 2.976237,3.1782404 2.9615653,3.1628374 2.9514262,3.1445464 l 0.00142,1.7451496 c 0.00716,-0.016092 0.019116,-0.02937 0.029006,-0.043922 A 0.36518672,0.31234559 0 0 0 2.9618833,4.947042 0.36518672,0.31234559 0 0 0 3.32707,5.2593876 0.36518672,0.31234559 0 0 0 3.6190293,5.1341242 c -0.00873,0.015583 -0.014892,0.032104 -0.026628,0.046365 L 4.9908612,4.2902216 c -0.048101,0.019191 -0.1005124,0.029184 -0.1535878,0.029283 -0.1602146,0 -0.2950597,-0.088722 -0.3442643,-0.2114839 A 0.36518672,0.31234559 0 0 0 4.8353715,4.3117765 0.36518672,0.31234559 0 0 0 5.2005583,3.9994309 0.36518672,0.31234559 0 0 0 4.9542473,3.7041667 L 3.5809931,2.8330154 c 0.00286,0.00353 0.00398,0.00777 0.00665,0.011387 A 0.36518672,0.31234559 0 0 0 3.3151866,2.7398811 Z" />
  </g>
  <g
     inkscape:groupmode="layer"
     id="layer8"
     inkscape:label="Prev"
     style="display:none">
    <path
       id="path1247-8-1"
       style="display:inline;fill:#000000;fill-opacity:1;stroke-width:0.107635"
       inkscape:transform-center-x="0.41307585"
       inkscape:transform-center-y="0.00062223222"
       d="M 4.6353717,2.7207162 A 0.36518673,0.3123456 0 0 1 5.0005583,3.0330618 0.36518673,0.3123456 0 0 1 4.9606153,3.175 c 0.013706,-0.015925 0.028378,-0.031328 0.038517,-0.049619 l -0.00142,1.7451496 c -0.00716,-0.016092 -0.019116,-0.02937 -0.029006,-0.043922 a 0.36518673,0.3123456 0 0 1 0.01997,0.101268 A 0.36518673,0.3123456 0 0 1 4.6234896,5.2402222 0.36518673,0.3123456 0 0 1 4.3315303,5.1149588 c 0.00873,0.015583 0.014892,0.032104 0.026628,0.046365 L 2.9596974,4.2710562 c 0.048101,0.019191 0.1005124,0.029184 0.1535878,0.029283 0.1602146,0 0.2950597,-0.088722 0.3442643,-0.2114839 A 0.36518673,0.3123456 0 0 1 3.1151868,4.2926116 0.36518673,0.3123456 0 0 1 2.75,3.980266 0.36518673,0.3123456 0 0 1 2.996311,3.6850018 L 4.3695652,2.8138505 c -0.00286,0.00353 -0.00398,0.00777 -0.00665,0.011387 A 0.36518673,0.3123456 0 0 1 4.6353717,2.7207162 Z" />
  </g>
  <g
     inkscape:groupmode="layer"
     id="layer1"
     inkscape:label="Settings"
     style="display:none">
    <path
       id="path184"
       style="fill:#000000;stroke-width:0.999999"
       inkscape:transform-center-x="-0.090946315"
       inkscape:transform-center-y="-0.063820669"
       d="m 15.308594,5.5859375 c -1.980246,-0.063625 0.08441,1.7284972 -1.853516,2.140625 C 11.517149,8.1386903 12.675566,5.6614613 10.892578,6.5253906 9.1095899,7.3893196 11.768567,8.015728 10.244141,9.28125 8.7197146,10.546772 8.5952385,7.816589 7.4179688,9.4101562 6.2406986,11.003723 8.886695,10.32139 8.125,12.150391 c -0.761695,1.829 -2.141506,-0.530404 -2.4433594,1.427734 -0.301853,1.958138 1.7248594,0.12418 1.9003906,2.097656 0.1755316,1.973477 -2.1427144,0.526267 -1.5,2.400391 0.6427149,1.874123 1.5837048,-0.691244 2.65625,0.974609 1.0725457,1.665853 -1.6529348,1.461496 -0.2128906,2.822266 1.4400439,1.360769 1.0827881,-1.34965 2.8066404,-0.373047 1.723853,0.976603 -0.78443,2.061977 1.123047,2.597656 1.907477,0.53568 0.330302,-1.696437 2.310547,-1.632812 1.980246,0.06363 0.265195,2.191424 2.203125,1.779297 1.93793,-0.412129 -0.495879,-1.657556 1.287109,-2.521485 1.782989,-0.863929 1.250965,1.818257 2.775391,0.552735 C 22.555676,21.009869 19.82273,21.036927 21,19.443359 c 1.17727,-1.593567 1.953149,1.028219 2.714844,-0.800781 0.761695,-1.829 -1.645603,-0.534049 -1.34375,-2.492187 0.301853,-1.958138 2.206781,0.0028 2.03125,-1.970703 -0.175531,-1.973477 -1.704942,0.292092 -2.347656,-1.582032 -0.642715,-1.874123 1.955358,-1.0236 0.882812,-2.6894529 C 21.864954,8.2423502 21.565044,10.960379 20.125,9.5996094 18.684956,8.23884 21.380103,7.7832435 19.65625,6.8066406 17.932397,5.8300378 18.928961,8.3755234 17.021484,7.8398438 15.114007,7.304164 17.28884,5.6495621 15.308594,5.5859375 Z m -0.279297,4.0742187 a 5.4999999,5.4999999 0 0 1 5.5,5.4999998 5.4999999,5.4999999 0 0 1 -5.5,5.5 5.4999999,5.4999999 0 0 1 -5.5000001,-5.5 5.4999999,5.4999999 0 0 1 5.5000001,-5.4999998 z"
       transform="scale(0.26458333)" />
  </g>
  <g
     inkscape:groupmode="layer"
     id="layer2"
     inkscape:label="Donate"
     style="display:none">
    <path
       id="path157"
       style="fill:#000000;stroke-width:0.999999"
       d="m 15.072266,9.4667969 a 5.4999999,5.4999999 0 0 0 -5.5000004,5.5000001 5.4999999,5.4999999 0 0 0 5.5000004,5.5 5.4999999,5.4999999 0 0 0 5.5,-5.5 5.4999999,5.4999999 0 0 0 -5.5,-5.5000001 z m 0.02539,1.1210941 a 4.3849304,4.3849304 0 0 1 0.02149,0 4.3849304,4.3849304 0 0 1 4.384765,4.384765 4.3849304,4.3849304 0 0 1 -4.384765,4.384766 4.3849304,4.3849304 0 0 1 -4.384766,-4.384766 4.3849304,4.3849304 0 0 1 4.363281,-4.384765 z"
       transform="scale(0.26458333)" />
  </g>
  <g
     inkscape:groupmode="layer"
     id="layer4"
     inkscape:label="Events"
     style="display:none">
    <path
       id="rect108"
       style="fill:#000000;stroke-width:0.264583"
       d="M 2.1153275,2.1008074 V 5.8165251 H 5.8607708 V 2.1008074 Z M 2.5224251,2.505005 H 5.4493232 V 5.4677912 H 2.5224251 Z" />
    <rect
       style="fill:#000000;stroke-width:0.264583"
       id="rect120"
       width="2.0426645"
       height="0.25867513"
       x="3.0030892"
       y="3.0556433" />
    <rect
       style="display:inline;fill:#000000;stroke-width:0.264583"
       id="rect120-3"
       width="2.0426645"
       height="0.25867513"
       x="2.9961567"
       y="4.6672535" />
    <rect
       style="display:inline;fill:#000000;stroke-width:0.264583"
       id="rect120-8"
       width="2.0426645"
       height="0.25867513"
       x="3.004302"
       y="3.8798747" />
  </g>
  <g
     inkscape:groupmode="layer"
     id="layer5"
     inkscape:label="Close"
     style="display:none">
    <rect
       style="fill:#000000;stroke-width:0.264583"
       id="rect315"
       width="3.4274313"
       height="0.51616079"
       x="-7.3300681"
       y="-0.26014841"
       rx="0.30000046"
       ry="0.49034697"
       transform="rotate(-135.02844)" />
    <rect
       style="display:inline;fill:#000000;stroke-width:0.264583"
       id="rect315-4"
       width="3.4274313"
       height="0.51616079"
       x="-1.7140896"
       y="-5.8676753"
       rx="0.30000046"
       ry="0.49034697"
       transform="matrix(0.70745768,-0.70675571,-0.70675571,-0.70745768,0,0)" />
  </g>
  <g
     inkscape:groupmode="layer"
     id="layer6"
     inkscape:label="Max"
     style="display:none">
    <rect
       style="fill:#000000;stroke-width:0.264583"
       id="rect334"
       width="2.6158147"
       height="0.49014917"
       x="2.6862302"
       y="2.6748664"
       rx="0.30000046"
       ry="0.49014917" />
    <rect
       style="display:inline;fill:#000000;stroke-width:0.264583"
       id="rect334-8"
       width="2.6158149"
       height="0.49014917"
       x="2.6613681"
       y="4.8042765"
       rx="0.30000046"
       ry="0.49014917" />
    <rect
       style="display:inline;fill:#000000;stroke-width:0.264583"
       id="rect334-0"
       width="2.6158149"
       height="0.49014917"
       x="-5.2844954"
       y="2.6692824"
       rx="0.30000046"
       ry="0.49014917"
       transform="rotate(-89.956491)" />
    <rect
       style="display:inline;fill:#000000;stroke-width:0.264583"
       id="rect334-0-0"
       width="2.6158149"
       height="0.49014917"
       x="-5.2824674"
       y="4.8206959"
       rx="0.30000046"
       ry="0.49014917"
       transform="rotate(-89.956491)" />
  </g>
  <g
     inkscape:groupmode="layer"
     id="layer10"
     inkscape:label="Accept">
    <path
       id="rect315-5"
       style="display:inline;fill:#000000;stroke-width:0.264583"
       d="M 2.3557386,3.762273 C 2.2844076,3.756953 2.2150607,3.778877 2.1645359,3.829452 2.0634864,3.9306019 2.0769279,4.106797 2.1945079,4.2242601 L 3.1050468,5.1337656 C 3.1580897,5.0561051 3.2273737,5.0076749 3.304518,5.0076752 H 3.7091445 L 2.5593437,3.8589081 C 2.5005541,3.8001764 2.4270695,3.7675953 2.3557386,3.762273 Z" />
    <rect
       style="display:inline;fill:#000000;stroke-width:0.264583"
       id="rect315-4-0"
       width="3.4274313"
       height="0.51616079"
       x="-1.438892"
       y="-6.2161818"
       rx="0.30000046"
       ry="0.49034697"
       transform="matrix(0.70745768,-0.70675571,-0.70675571,-0.70745768,0,0)" />
  </g>
</svg>
