<?xml version="1.0" encoding="UTF-8" standalone="no"?>
<svg
   xmlns:dc="http://purl.org/dc/elements/1.1/"
   xmlns:cc="http://creativecommons.org/ns#"
   xmlns:rdf="http://www.w3.org/1999/02/22-rdf-syntax-ns#"
   xmlns:svg="http://www.w3.org/2000/svg"
   xmlns="http://www.w3.org/2000/svg"
   xmlns:sodipodi="http://sodipodi.sourceforge.net/DTD/sodipodi-0.dtd"
   xmlns:inkscape="http://www.inkscape.org/namespaces/inkscape"
   width="30"
   height="30"
   viewBox="0 0 7.9374997 7.9375005"
   version="1.1"
   id="svg8"
   inkscape:version="1.0.1 (3bc2e813f5, 2020-09-07)"
   sodipodi:docname="icons_30.svg"
   inkscape:export-filename="/home/milgra/Projects/zenmusic/res/settings.png"
   inkscape:export-xdpi="96"
   inkscape:export-ydpi="96">
  <defs
     id="defs2" />
  <sodipodi:namedview
     id="base"
     pagecolor="#ffffff"
     bordercolor="#666666"
     borderopacity="1.0"
     inkscape:pageopacity="0.0"
     inkscape:pageshadow="2"
     inkscape:zoom="15.734375"
     inkscape:cx="18.763462"
     inkscape:cy="18.479541"
     inkscape:document-units="mm"
     inkscape:current-layer="layer1"
     inkscape:document-rotation="0"
     showgrid="true"
     units="px"
     inkscape:window-width="1912"
     inkscape:window-height="1042"
     inkscape:window-x="0"
     inkscape:window-y="0"
     inkscape:window-maximized="1"
     showguides="false">
    <inkscape:grid
       type="xygrid"
       id="grid46" />
  </sodipodi:namedview>
  <metadata
     id="metadata5">
    <rdf:RDF>
      <cc:Work
         rdf:about="">
        <dc:format>image/svg+xml</dc:format>
        <dc:type
           rdf:resource="http://purl.org/dc/dcmitype/StillImage" />
        <dc:title></dc:title>
      </cc:Work>
    </rdf:RDF>
  </metadata>
  <g
     inkscape:groupmode="layer"
     id="layer3"
     inkscape:label="Shuffle"
     style="display:none">
    <ellipse
       style="fill:#000000;stroke-width:0.109445"
       id="path49"
       cx="2.8745153"
       cy="2.8785605"
       rx="0.55011481"
       ry="0.5443514" />
    <ellipse
       style="fill:#000000;stroke-width:0.109445"
       id="path49-0"
       cx="2.8710337"
       cy="5.0583386"
       rx="0.55011481"
       ry="0.5443514" />
    <ellipse
       style="fill:#000000;stroke-width:0.109445"
       id="path49-3"
       cx="5.0811577"
       cy="2.8823233"
       rx="0.55011481"
       ry="0.5443514" />
    <ellipse
       style="fill:#000000;stroke-width:0.109445"
       id="path49-8"
       cx="5.0649586"
       cy="5.0582151"
       rx="0.55011481"
       ry="0.5443514" />
    <ellipse
       style="fill:#000000;stroke-width:0.109445"
       id="path49-6"
       cx="3.9764638"
       cy="3.9720514"
       rx="0.55011481"
       ry="0.5443514" />
  </g>
  <g
     inkscape:groupmode="layer"
     id="layer7"
     inkscape:label="Next"
     style="display:none">
    <path
       id="path1247-8"
       style="display:inline;fill:#000000;fill-opacity:1;stroke-width:0.107635"
       inkscape:transform-center-x="-0.41307585"
       inkscape:transform-center-y="0.00062223222"
       d="M 3.3151866,2.7398811 A 0.36518672,0.31234559 0 0 0 2.95,3.0522267 0.36518672,0.31234559 0 0 0 2.9899429,3.1941649 C 2.976237,3.1782404 2.9615653,3.1628374 2.9514262,3.1445464 l 0.00142,1.7451496 c 0.00716,-0.016092 0.019116,-0.02937 0.029006,-0.043922 A 0.36518672,0.31234559 0 0 0 2.9618833,4.947042 0.36518672,0.31234559 0 0 0 3.32707,5.2593876 0.36518672,0.31234559 0 0 0 3.6190293,5.1341242 c -0.00873,0.015583 -0.014892,0.032104 -0.026628,0.046365 L 4.9908612,4.2902216 c -0.048101,0.019191 -0.1005124,0.029184 -0.1535878,0.029283 -0.1602146,0 -0.2950597,-0.088722 -0.3442643,-0.2114839 A 0.36518672,0.31234559 0 0 0 4.8353715,4.3117765 0.36518672,0.31234559 0 0 0 5.2005583,3.9994309 0.36518672,0.31234559 0 0 0 4.9542473,3.7041667 L 3.5809931,2.8330154 c 0.00286,0.00353 0.00398,0.00777 0.00665,0.011387 A 0.36518672,0.31234559 0 0 0 3.3151866,2.7398811 Z" />
  </g>
  <g
     inkscape:groupmode="layer"
     id="layer8"
     inkscape:label="Prev"
     style="display:none">
    <path
       id="path1247-8-1"
       style="display:inline;fill:#000000;fill-opacity:1;stroke-width:0.107635"
       inkscape:transform-center-x="0.41307585"
       inkscape:transform-center-y="0.00062223222"
       d="M 4.6353717,2.7207162 A 0.36518673,0.3123456 0 0 1 5.0005583,3.0330618 0.36518673,0.3123456 0 0 1 4.9606153,3.175 c 0.013706,-0.015925 0.028378,-0.031328 0.038517,-0.049619 l -0.00142,1.7451496 c -0.00716,-0.016092 -0.019116,-0.02937 -0.029006,-0.043922 a 0.36518673,0.3123456 0 0 1 0.01997,0.101268 A 0.36518673,0.3123456 0 0 1 4.6234896,5.2402222 0.36518673,0.3123456 0 0 1 4.3315303,5.1149588 c 0.00873,0.015583 0.014892,0.032104 0.026628,0.046365 L 2.9596974,4.2710562 c 0.048101,0.019191 0.1005124,0.029184 0.1535878,0.029283 0.1602146,0 0.2950597,-0.088722 0.3442643,-0.2114839 A 0.36518673,0.3123456 0 0 1 3.1151868,4.2926116 0.36518673,0.3123456 0 0 1 2.75,3.980266 0.36518673,0.3123456 0 0 1 2.996311,3.6850018 L 4.3695652,2.8138505 c -0.00286,0.00353 -0.00398,0.00777 -0.00665,0.011387 A 0.36518673,0.3123456 0 0 1 4.6353717,2.7207162 Z" />
  </g>
  <g
     inkscape:groupmode="layer"
     id="layer1"
     inkscape:label="Settings"
     style="display:inline">
    <path
       id="path184"
       style="fill:#000000;stroke-width:0.999999"
       inkscape:transform-center-x="-0.090946315"
       inkscape:transform-center-y="-0.063820669"
       d="M 15.308594 5.5859375 C 13.328348 5.5223125 15.393008 7.3144347 13.455078 7.7265625 C 11.517149 8.1386903 12.675566 5.6614613 10.892578 6.5253906 C 9.1095899 7.3893196 11.768567 8.015728 10.244141 9.28125 C 8.7197146 10.546772 8.5952385 7.816589 7.4179688 9.4101562 C 6.2406986 11.003723 8.886695 10.32139 8.125 12.150391 C 7.363305 13.979391 5.983494 11.619987 5.6816406 13.578125 C 5.3797876 15.536263 7.4065 13.702305 7.5820312 15.675781 C 7.7575628 17.649258 5.4393168 16.202048 6.0820312 18.076172 C 6.7247461 19.950295 7.665736 17.384928 8.7382812 19.050781 C 9.8108269 20.716634 7.0853464 20.512277 8.5253906 21.873047 C 9.9654345 23.233816 9.6081787 20.523397 11.332031 21.5 C 13.055884 22.476603 10.547601 23.561977 12.455078 24.097656 C 14.362555 24.633336 12.78538 22.401219 14.765625 22.464844 C 16.745871 22.528469 15.03082 24.656268 16.96875 24.244141 C 18.90668 23.832012 16.472871 22.586585 18.255859 21.722656 C 20.038848 20.858727 19.506824 23.540913 21.03125 22.275391 C 22.555676 21.009869 19.82273 21.036927 21 19.443359 C 22.17727 17.849792 22.953149 20.471578 23.714844 18.642578 C 24.476539 16.813578 22.069241 18.108529 22.371094 16.150391 C 22.672947 14.192253 24.577875 16.153164 24.402344 14.179688 C 24.226813 12.206211 22.697402 14.47178 22.054688 12.597656 C 21.411973 10.723533 24.010046 11.574056 22.9375 9.9082031 C 21.864954 8.2423502 21.565044 10.960379 20.125 9.5996094 C 18.684956 8.23884 21.380103 7.7832435 19.65625 6.8066406 C 17.932397 5.8300378 18.928961 8.3755234 17.021484 7.8398438 C 15.114007 7.304164 17.28884 5.6495621 15.308594 5.5859375 z M 15.029297 9.6601562 A 5.4999999 5.4999999 0 0 1 20.529297 15.160156 A 5.4999999 5.4999999 0 0 1 15.029297 20.660156 A 5.4999999 5.4999999 0 0 1 9.5292969 15.160156 A 5.4999999 5.4999999 0 0 1 15.029297 9.6601562 z "
       transform="scale(0.26458333)" />
  </g>
  <g
     inkscape:groupmode="layer"
     id="layer2"
     inkscape:label="Donate"
     style="display:none">
    <path
       id="path157"
       style="fill:#000000;stroke-width:0.999999"
       d="m 15.072266,9.4667969 a 5.4999999,5.4999999 0 0 0 -5.5000004,5.5000001 5.4999999,5.4999999 0 0 0 5.5000004,5.5 5.4999999,5.4999999 0 0 0 5.5,-5.5 5.4999999,5.4999999 0 0 0 -5.5,-5.5000001 z m 0.02539,1.1210941 a 4.3849304,4.3849304 0 0 1 0.02149,0 4.3849304,4.3849304 0 0 1 4.384765,4.384765 4.3849304,4.3849304 0 0 1 -4.384765,4.384766 4.3849304,4.3849304 0 0 1 -4.384766,-4.384766 4.3849304,4.3849304 0 0 1 4.363281,-4.384765 z"
       transform="scale(0.26458333)" />
  </g>
  <g
     inkscape:groupmode="layer"
     id="layer4"
     inkscape:label="Events"
     style="display:none">
    <rect
       style="fill:#000000;stroke-width:0.246944"
       id="rect180"
       width="0.98777771"
       height="2.4694443"
       x="3.5"
       y="2.0999999"
       rx="0.49999896"
       ry="0.49999896" />
    <rect
       style="fill:#000000;stroke-width:0.246944"
       id="rect182"
       width="0.98777771"
       height="0.98777771"
       x="3.5"
       y="4.8163891"
       rx="0.49999896"
       ry="0.49999896" />
  </g>
</svg>
