<?xml version="1.0" encoding="UTF-8" standalone="no"?>
<svg
   xmlns:dc="http://purl.org/dc/elements/1.1/"
   xmlns:cc="http://creativecommons.org/ns#"
   xmlns:rdf="http://www.w3.org/1999/02/22-rdf-syntax-ns#"
   xmlns:svg="http://www.w3.org/2000/svg"
   xmlns="http://www.w3.org/2000/svg"
   xmlns:sodipodi="http://sodipodi.sourceforge.net/DTD/sodipodi-0.dtd"
   xmlns:inkscape="http://www.inkscape.org/namespaces/inkscape"
   width="30"
   height="30"
   viewBox="0 0 7.9374997 7.9375005"
   version="1.1"
   id="svg8"
   inkscape:version="1.0.1 (3bc2e813f5, 2020-09-07)"
   sodipodi:docname="icons_30.svg"
   inkscape:export-filename="/home/milgra/Projects/zenmusic/res/home.png"
   inkscape:export-xdpi="96"
   inkscape:export-ydpi="96">
  <defs
     id="defs2">
    <inkscape:perspective
       sodipodi:type="inkscape:persp3d"
       inkscape:vp_x="0 : 3.9687502 : 1"
       inkscape:vp_y="0 : 1000 : 0"
       inkscape:vp_z="7.9374997 : 3.9687502 : 1"
       inkscape:persp3d-origin="3.9687499 : 2.6458335 : 1"
       id="perspective96" />
  </defs>
  <sodipodi:namedview
     id="base"
     pagecolor="#ffffff"
     bordercolor="#666666"
     borderopacity="1.0"
     inkscape:pageopacity="0.0"
     inkscape:pageshadow="2"
     inkscape:zoom="22.251767"
     inkscape:cx="12.68361"
     inkscape:cy="13.601785"
     inkscape:document-units="mm"
     inkscape:current-layer="layer2"
     inkscape:document-rotation="0"
     showgrid="true"
     units="px"
     inkscape:window-width="1912"
     inkscape:window-height="1042"
     inkscape:window-x="0"
     inkscape:window-y="0"
     inkscape:window-maximized="1"
     showguides="false"
     inkscape:snap-others="false"
     inkscape:object-nodes="false"
     inkscape:snap-nodes="false"
     inkscape:snap-global="false">
    <inkscape:grid
       type="xygrid"
       id="grid46" />
  </sodipodi:namedview>
  <metadata
     id="metadata5">
    <rdf:RDF>
      <cc:Work
         rdf:about="">
        <dc:format>image/svg+xml</dc:format>
        <dc:type
           rdf:resource="http://purl.org/dc/dcmitype/StillImage" />
        <dc:title />
      </cc:Work>
    </rdf:RDF>
  </metadata>
  <g
     inkscape:groupmode="layer"
     id="layer3"
     inkscape:label="Shuffle"
     style="display:none">
    <rect
       style="fill:#000000;stroke-width:0.264583"
       id="rect143"
       width="3.7256112"
       height="3.6685905"
       x="2.1366553"
       y="2.1374562"
       rx="0.80000001"
       ry="0.80000001" />
    <rect
       style="fill:#ffffff;stroke-width:0.264583"
       id="rect145"
       width="3.1230376"
       height="3.1230376"
       x="2.4393334"
       y="2.4297802"
       rx="0.60000002"
       ry="0.60000002" />
    <circle
       style="fill:#000000;stroke-width:0.264583"
       id="path147"
       cx="3.3352365"
       cy="4.6144242"
       r="0.37699828" />
    <circle
       style="display:inline;fill:#000000;stroke-width:0.264583"
       id="path147-2"
       cx="4.6549096"
       cy="3.3009348"
       r="0.37699828" />
    <circle
       style="display:inline;fill:#000000;stroke-width:0.264583"
       id="path147-4"
       cx="3.3369493"
       cy="3.2893271"
       r="0.37699828" />
    <circle
       style="display:inline;fill:#000000;stroke-width:0.264583"
       id="path147-4-8"
       cx="4.6525536"
       cy="4.6096826"
       r="0.37699828" />
  </g>
  <g
     inkscape:groupmode="layer"
     id="layer7"
     inkscape:label="Next"
     style="display:none">
    <path
       id="path1247-8"
       style="display:inline;fill:#000000;fill-opacity:1;stroke-width:0.107635"
       inkscape:transform-center-x="-0.41307585"
       inkscape:transform-center-y="0.00062223222"
       d="M 3.3151866,2.7398811 A 0.36518672,0.31234559 0 0 0 2.95,3.0522267 0.36518672,0.31234559 0 0 0 2.9899429,3.1941649 C 2.976237,3.1782404 2.9615653,3.1628374 2.9514262,3.1445464 l 0.00142,1.7451496 c 0.00716,-0.016092 0.019116,-0.02937 0.029006,-0.043922 A 0.36518672,0.31234559 0 0 0 2.9618833,4.947042 0.36518672,0.31234559 0 0 0 3.32707,5.2593876 0.36518672,0.31234559 0 0 0 3.6190293,5.1341242 c -0.00873,0.015583 -0.014892,0.032104 -0.026628,0.046365 L 4.9908612,4.2902216 c -0.048101,0.019191 -0.1005124,0.029184 -0.1535878,0.029283 -0.1602146,0 -0.2950597,-0.088722 -0.3442643,-0.2114839 A 0.36518672,0.31234559 0 0 0 4.8353715,4.3117765 0.36518672,0.31234559 0 0 0 5.2005583,3.9994309 0.36518672,0.31234559 0 0 0 4.9542473,3.7041667 L 3.5809931,2.8330154 c 0.00286,0.00353 0.00398,0.00777 0.00665,0.011387 A 0.36518672,0.31234559 0 0 0 3.3151866,2.7398811 Z" />
  </g>
  <g
     inkscape:groupmode="layer"
     id="layer8"
     inkscape:label="Prev"
     style="display:none">
    <path
       id="path1247-8-1"
       style="display:inline;fill:#000000;fill-opacity:1;stroke-width:0.107635"
       inkscape:transform-center-x="0.41307585"
       inkscape:transform-center-y="0.00062223222"
       d="M 4.6353717,2.7207162 A 0.36518673,0.3123456 0 0 1 5.0005583,3.0330618 0.36518673,0.3123456 0 0 1 4.9606153,3.175 c 0.013706,-0.015925 0.028378,-0.031328 0.038517,-0.049619 l -0.00142,1.7451496 c -0.00716,-0.016092 -0.019116,-0.02937 -0.029006,-0.043922 a 0.36518673,0.3123456 0 0 1 0.01997,0.101268 A 0.36518673,0.3123456 0 0 1 4.6234896,5.2402222 0.36518673,0.3123456 0 0 1 4.3315303,5.1149588 c 0.00873,0.015583 0.014892,0.032104 0.026628,0.046365 L 2.9596974,4.2710562 c 0.048101,0.019191 0.1005124,0.029184 0.1535878,0.029283 0.1602146,0 0.2950597,-0.088722 0.3442643,-0.2114839 A 0.36518673,0.3123456 0 0 1 3.1151868,4.2926116 0.36518673,0.3123456 0 0 1 2.75,3.980266 0.36518673,0.3123456 0 0 1 2.996311,3.6850018 L 4.3695652,2.8138505 c -0.00286,0.00353 -0.00398,0.00777 -0.00665,0.011387 A 0.36518673,0.3123456 0 0 1 4.6353717,2.7207162 Z" />
  </g>
  <g
     inkscape:groupmode="layer"
     id="layer1"
     inkscape:label="Settings"
     style="display:none">
    <rect
       style="display:inline;fill:#000000;stroke-width:0.264582"
       id="rect120-8-3"
       width="3.1815627"
       height="0.52247995"
       x="-5.5704503"
       y="3.7025023"
       transform="matrix(-0.00196034,-0.99999808,0.99999611,-0.00278968,0,0)" />
    <rect
       style="display:inline;fill:#000000;stroke-width:0.264582"
       id="rect120-8-1-8"
       width="3.1815627"
       height="0.52247995"
       x="-5.5716834"
       y="2.6435065"
       transform="matrix(-0.00196034,-0.99999808,0.99999611,-0.00278968,0,0)" />
    <rect
       style="display:inline;fill:#000000;stroke-width:0.264582"
       id="rect120-8-0-6"
       width="3.1815627"
       height="0.52247995"
       x="-5.5703368"
       y="4.7543688"
       transform="matrix(-0.00196034,-0.99999808,0.99999611,-0.00278968,0,0)" />
  </g>
  <g
     inkscape:groupmode="layer"
     id="layer2"
     inkscape:label="About"
     style="display:inline">
    <path
       id="path1247-8-3"
       style="display:inline;fill:#000000;fill-opacity:1;stroke-width:0.107635"
       inkscape:transform-center-x="-0.00072743079"
       inkscape:transform-center-y="0.41273457"
       d="M 5.2540801,3.1347861 A 0.3123456,0.36518673 0.22658146 0 0 4.9431811,2.7683672 0.3123456,0.36518673 0.22658146 0 0 4.801086,2.8077485 c 0.015979,-0.013643 0.03144,-0.028254 0.049771,-0.03832 l -1.7451416,-0.00548 c 0.016064,0.00722 0.029294,0.019232 0.043807,0.02918 A 0.3123456,0.36518673 0.22658146 0 0 3.0483341,2.7727569 0.3123456,0.36518673 0.22658146 0 0 2.7345468,3.1367055 0.3123456,0.36518673 0.22658146 0 0 2.8586546,3.4291579 c -0.015548,-0.00879 -0.032045,-0.015019 -0.046259,-0.026811 L 3.6971251,4.8043166 C 3.6781245,4.7561401 3.6683388,4.7036896 3.6684497,4.6506142 3.6690833,4.4904009 3.7583378,4.3559077 3.8812934,4.307189 A 0.3123456,0.36518673 0.22658146 0 0 3.6761852,4.6487429 0.3123456,0.36518673 0.22658146 0 0 3.9870842,5.0151621 0.3123456,0.36518673 0.22658146 0 0 4.2833202,4.7700206 L 5.1598953,3.4002222 c -0.00354,0.00285 -0.00779,0.00395 -0.011413,0.0066 a 0.3123456,0.36518673 0.22658146 0 0 0.105598,-0.272041 z" />
  </g>
  <g
     inkscape:groupmode="layer"
     id="layer4"
     inkscape:label="Events"
     style="display:none">
    <rect
       style="display:inline;fill:#000000;stroke-width:0.264582"
       id="rect120-8"
       width="2.6670361"
       height="0.52247936"
       x="2.6473155"
       y="3.7256138" />
    <rect
       style="display:inline;fill:#000000;stroke-width:0.264582"
       id="rect120-8-1"
       width="2.6670361"
       height="0.52247936"
       x="2.6310935"
       y="2.666584" />
    <rect
       style="display:inline;fill:#000000;stroke-width:0.264582"
       id="rect120-8-0"
       width="2.6670361"
       height="0.52247936"
       x="2.6322761"
       y="4.7545457" />
  </g>
  <g
     inkscape:groupmode="layer"
     id="layer5"
     inkscape:label="Close"
     style="display:none">
    <rect
       style="fill:#000000;stroke-width:0.264583"
       id="rect315"
       width="3.4274313"
       height="0.51616079"
       x="-7.3300681"
       y="-0.26014841"
       rx="0.30000046"
       ry="0.49034697"
       transform="rotate(-135.02844)" />
    <rect
       style="display:inline;fill:#000000;stroke-width:0.264583"
       id="rect315-4"
       width="3.4274313"
       height="0.51616079"
       x="-1.7140896"
       y="-5.8676753"
       rx="0.30000046"
       ry="0.49034697"
       transform="matrix(0.70745768,-0.70675571,-0.70675571,-0.70745768,0,0)" />
  </g>
  <g
     inkscape:groupmode="layer"
     id="layer6"
     inkscape:label="Max"
     style="display:none">
    <rect
       style="fill:#000000;stroke-width:0.264583"
       id="rect334"
       width="2.6158147"
       height="0.49014917"
       x="2.6862302"
       y="2.6748664"
       rx="0.30000046"
       ry="0.49014917" />
    <rect
       style="display:inline;fill:#000000;stroke-width:0.264583"
       id="rect334-8"
       width="2.6158149"
       height="0.49014917"
       x="2.6613681"
       y="4.8042765"
       rx="0.30000046"
       ry="0.49014917" />
    <rect
       style="display:inline;fill:#000000;stroke-width:0.264583"
       id="rect334-0"
       width="2.6158149"
       height="0.49014917"
       x="-5.2844954"
       y="2.6692824"
       rx="0.30000046"
       ry="0.49014917"
       transform="rotate(-89.956491)" />
    <rect
       style="display:inline;fill:#000000;stroke-width:0.264583"
       id="rect334-0-0"
       width="2.6158149"
       height="0.49014917"
       x="-5.2824674"
       y="4.8206959"
       rx="0.30000046"
       ry="0.49014917"
       transform="rotate(-89.956491)" />
  </g>
  <g
     inkscape:groupmode="layer"
     id="layer10"
     inkscape:label="Accept"
     style="display:none">
    <path
       id="rect315-5"
       style="display:inline;fill:#000000;stroke-width:0.264583"
       d="M 2.3557386,3.762273 C 2.2844076,3.756953 2.2150607,3.778877 2.1645359,3.829452 2.0634864,3.9306019 2.0769279,4.106797 2.1945079,4.2242601 L 3.1050468,5.1337656 C 3.1580897,5.0561051 3.2273737,5.0076749 3.304518,5.0076752 H 3.7091445 L 2.5593437,3.8589081 C 2.5005541,3.8001764 2.4270695,3.7675953 2.3557386,3.762273 Z" />
    <rect
       style="display:inline;fill:#000000;stroke-width:0.264583"
       id="rect315-4-0"
       width="3.4274313"
       height="0.51616079"
       x="-1.438892"
       y="-6.2161818"
       rx="0.30000046"
       ry="0.49034697"
       transform="matrix(0.70745768,-0.70675571,-0.70675571,-0.70745768,0,0)" />
  </g>
</svg>
